<?xml version="1.0" standalone="no"?>
<!DOCTYPE svg PUBLIC "-//W3C//DTD SVG 20010904//EN"
 "http://www.w3.org/TR/2001/REC-SVG-20010904/DTD/svg10.dtd">
<svg version="1.0" xmlns="http://www.w3.org/2000/svg"
 width="458.000000pt" height="458.000000pt" viewBox="0 0 458.000000 458.000000"
 preserveAspectRatio="xMidYMid meet">
<metadata>
Created by potrace 1.11, written by Peter Selinger 2001-2013
</metadata>
<g transform="translate(0.000000,458.000000) scale(0.100000,-0.100000)"
fill="#000000" stroke="none">
<path d="M0 2290 l0 -2290 2290 0 2290 0 0 2290 0 2290 -2290 0 -2290 0 0
-2290z m1310 768 c1 -100 3 -128 11 -115 30 51 163 73 229 39 62 -33 70 -63
70 -264 l0 -178 -30 0 -30 0 -1 153 c-1 83 -4 165 -8 181 -18 85 -174 94 -219
12 -13 -24 -18 -64 -20 -188 l-4 -158 -34 0 -34 0 0 318 c0 175 3 322 7 325 3
4 19 7 35 7 l28 0 0 -132z m-150 57 l0 -35 -95 0 -95 0 0 -270 0 -270 -35 0
-35 0 0 270 0 270 -95 0 -95 0 0 35 0 35 225 0 225 0 0 -35z m886 -135 c143
-70 151 -335 11 -420 -68 -41 -177 -34 -237 17 -54 45 -74 97 -74 193 0 89 18
143 61 182 55 50 166 63 239 28z m520 4 c19 -9 39 -25 45 -35 9 -18 12 -17 50
13 75 61 207 47 247 -26 14 -25 18 -65 20 -213 l4 -183 -36 0 -36 0 0 164 c0
91 -4 176 -10 191 -12 32 -69 58 -108 49 -90 -19 -102 -47 -102 -248 l0 -156
-35 0 -35 0 0 164 c0 91 -4 176 -10 191 -19 51 -116 67 -164 26 -38 -32 -46
-74 -46 -231 l0 -150 -35 0 -35 0 0 225 0 225 30 0 c25 0 30 -4 30 -25 0 -26
14 -33 26 -14 28 46 136 63 200 33z m764 -2 c61 -30 70 -62 70 -264 l0 -178
-24 0 c-19 0 -26 7 -31 30 -4 17 -9 30 -12 30 -3 0 -20 -13 -39 -29 -59 -53
-173 -51 -224 4 -30 32 -39 109 -16 152 23 46 90 74 192 81 l84 5 0 43 c0 81
-63 110 -164 76 l-57 -19 -10 24 c-5 13 -9 26 -9 28 0 3 21 11 48 19 66 20
149 20 192 -2z m453 7 c37 -10 46 -29 29 -57 -7 -10 -21 -9 -71 3 -92 24 -161
2 -161 -50 0 -31 24 -49 105 -81 94 -36 132 -66 146 -113 10 -33 9 -45 -7 -78
-28 -56 -78 -78 -179 -77 -96 1 -125 13 -125 54 0 17 1 30 3 30 1 0 20 -7 42
-15 49 -17 135 -19 170 -3 14 6 28 22 31 34 11 45 -5 65 -81 100 -41 19 -78
34 -84 34 -5 0 -26 15 -45 34 -30 28 -36 40 -36 75 0 23 5 51 11 63 26 48 158
73 252 47z"/>
<path d="M1910 2940 c-68 -16 -107 -96 -97 -202 9 -101 54 -148 142 -148 90 0
146 91 131 214 -14 107 -79 158 -176 136z"/>
<path d="M3173 2749 c-40 -12 -63 -43 -63 -86 0 -48 29 -73 85 -73 86 0 135
47 135 130 l0 40 -62 -1 c-35 0 -77 -5 -95 -10z"/>
</g>
</svg>
